<svg width="44" height="42" viewBox="0 0 44 42" fill="none" xmlns="http://www.w3.org/2000/svg">
<path d="M42.7999 17.2C42.1999 14.1 40.9999 11.4 39.3999 9.1C38.9999 8.5 38.5999 8.1 38.1999 7.6C33.8999 2.6 28.1999 0.1 21.5999 0.1C16.3999 4.81028e-07 11.8999 1.6 7.9999 4.6C3.9999 7.7 0.999897 12.1 0.199897 18.1C-0.600103 24.1 1.2999 30 5.1999 34.6C9.1999 39.1 14.8999 41.9 21.5999 42C32.6999 41.9 41.3999 33.7 42.8999 23.8C43.1999 21.9 43.1999 20.1 42.8999 18.2C42.8999 17.8 42.7999 17.5 42.7999 17.2Z" fill="url(#paint0_radial_9_3)"/>
<path d="M27.7999 19.3C33.0999 16.3 36.4999 12.9 36.0999 10.7C35.4999 7.70001 27.9999 8.10001 19.1999 11.5C10.4999 14.9 3.79991 20.1 4.39991 23.1C4.79991 25.2 9.49991 25.7 14.7999 24.5L15.9999 23.5C13.4999 23.8 10.4999 23.5 10.1999 22.3C9.69991 20.2 14.3999 16.4 20.4999 13.8C26.6999 11.2 32.0999 10.7 32.4999 12.8C32.7999 14.3 30.5999 16.6 27.1999 18.7C26.8999 18.9 27.0999 19.2 27.0999 19.2C27.0999 19.2 27.3999 19.5 27.7999 19.3Z" fill="white"/>
<path d="M33.6 28.1C31 27.9 27.7 24.9 23.2 20.2C23.1 20.1 23 19.9 22.8 19.8C22.8 19.8 22.8 19.8 22.8 19.7C23.3 18.7 23.6 17.6 23.9 16.5C24.2 15.1 24.4 13.4 24.3 12C24.2 10.4 23.8 8.90002 23.3 7.40002C23.3 7.40002 23.3 7.40002 23.3 7.30002C22.9 6.40003 22 5.80002 21 5.90002C19.8 6.00002 18.8 7.10002 18.9 8.40002C18.9 8.60002 19 8.90003 19.1 9.10003C20.2 11.7 20.4 16 18.7 19.5C17.3 22.3 15.2 24.6 12.3 26.1C10.9 26.8 9.89995 27.3 9.39995 27.9C9.19995 28.2 8.99996 28.7 9.29996 29.3C9.29996 29.4 12.2 33.3 12.4 33.3C12.8 33.4 13 33.2 13.2 32.6C13.7 31.3 14.9 30.3 15.9 29.3C18 27.2 19.7 25.3 21.1 23.2C23.5 25.9 27.7 30.8 27.7 30.8C28.7 32 29.5 32.7 30.2 33.1C30.5 33.2 31.1 33.3 31.6 32.8C31.6 32.8 34.6 28.9 34.6 28.7C34.5 28.3 34.2 28.1 33.6 28.1Z" fill="white"/>
<defs>
<radialGradient id="paint0_radial_9_3" cx="0" cy="0" r="1" gradientUnits="userSpaceOnUse" gradientTransform="translate(30.3376 8.817) scale(37.1291 37.1291)">
<stop stop-color="#BAE3F9"/>
<stop offset="0.2" stop-color="#00AFEC"/>
<stop offset="0.8" stop-color="#0055A2"/>
<stop offset="0.8249" stop-color="#0059A5"/>
<stop offset="0.8609" stop-color="#0064AE"/>
<stop offset="0.9035" stop-color="#0077BE"/>
<stop offset="0.9512" stop-color="#0091D4"/>
<stop offset="1" stop-color="#00AFEC"/>
</radialGradient>
</defs>
</svg>
